# xmcd CD database file
#
# Track frame offsets:
#       150
#       19389
#       44083
#       62261
#       83698
#       97652
#       123663
#       143269
#       161897
#       176454
#       198757
#       221749
#       246077
#
# Disc length: 3667 seconds
#
# Revision: 1
# Processed by: cddbd v1.5.2PL0 Copyright (c) Steve Scherf et al.
# Submitted via: jack 3.1.1
#
DISCID=a90e510d
DTITLE=Johnnie Ninety-Nine and The Hornets - No Home Like Nowhere
DYEAR=2010
DGENRE=Bluegrass
TTITLE0=Uncle the Bridge
TTITLE1=The Ballad of Skylar and Anastasia
TTITLE2=Big Shot World
TTITLE3=St. Theresa 
TTITLE4=Dirt City Rebels
TTITLE5=Michael Grady
TTITLE6=Street Diaries
TTITLE7=White Horses 
TTITLE8=12 Dollar Blues 
TTITLE9=We Need an Anthem
TTITLE10=For the Drifters
TTITLE11=Space Between the Sounds
TTITLE12=Two-Lane Blacktop
EXTD=
EXTT0=
EXTT1=
EXTT2=
EXTT3=
EXTT4=
EXTT5=
EXTT6=
EXTT7=
EXTT8=
EXTT9=
EXTT10=
EXTT11=
EXTT12=
PLAYORDER=
